<?xml version="1.0" standalone="no"?><!DOCTYPE svg PUBLIC "-//W3C//DTD SVG 1.1//EN" "http://www.w3.org/Graphics/SVG/1.1/DTD/svg11.dtd"><svg t="1734590898389" class="icon" viewBox="0 0 1194 1024" version="1.1" xmlns="http://www.w3.org/2000/svg" p-id="7133" xmlns:xlink="http://www.w3.org/1999/xlink" width="233.203125" height="200"><path d="M625.777778 1024H195.754667C87.836444 1024 0 926.037333 0 805.546667V218.453333C0 97.905778 87.836444 0 195.754667 0H625.777778v572.529778l-70.200889 73.614222-131.470222-277.617778c-7.793778-16.156444-22.072889-26.510222-37.888-27.136-15.815111-0.682667-30.833778 8.476444-39.424 23.950222L121.173333 771.470222c-13.653333 24.462222-7.736889 57.230222 13.084445 73.216a39.936 39.936 0 0 0 24.689778 8.647111c14.734222 0 29.297778-8.476444 37.888-24.007111l184.775111-332.572444 122.652444 258.730666a45.966222 45.966222 0 0 0 31.857778 26.510223 40.789333 40.789333 0 0 0 37.660444-12.743111l52.053334-54.613334V1024z" fill="#a3d4b9" p-id="7134" data-spm-anchor-id="a313x.manage_type_myprojects.0.i1.17a43a814szsc5" class="selected"></path><path d="M625.777778 1024v-309.361778l115.313778-120.945778 146.375111 203.093334c16.042667 22.186667 44.544 25.031111 63.601777 6.200889 19.114667-18.887111 21.390222-52.337778 5.461334-74.524445l-176.355556-244.622222a43.064889 43.064889 0 0 0-31.288889-18.773333 40.846222 40.846222 0 0 0-33.28 13.312L625.777778 572.529778V0h373.134222C1106.830222 0 1194.666667 97.962667 1194.666667 218.453333v587.093334c0 120.490667-87.836444 218.453333-195.754667 218.453333H625.777778z m227.555555-796.444444a56.888889 56.888889 0 1 0-0.056889 113.720888A56.888889 56.888889 0 0 0 853.333333 227.555556z" fill="#55bb8a" p-id="7135" data-spm-anchor-id="a313x.manage_type_myprojects.0.i0.17a43a814szsc5" class=""></path></svg>